<?xml version="1.0" encoding="UTF-8"?>
<svg xmlns="http://www.w3.org/2000/svg" version="1.1" viewBox="0 0 640 100">
  <defs>
    <style>
      .cls-1 {
        fill: #fff;
      }
    </style>
  </defs>
  <!-- Generator: Adobe Illustrator 28.7.1, SVG Export Plug-In . SVG Version: 1.2.0 Build 142)  -->
  <g>
    <g id="Layer_1">
      <g>
        <path class="cls-1" d="M55.3,68.2c-2.4,1-5.2,1.6-8.5,1.6s-5.3-.5-7.6-1.4c-2.3-1-4.3-2.3-6-4.1-1.7-1.7-3-3.8-3.9-6.3-.9-2.4-1.4-5.2-1.4-8.1s.4-5.6,1.4-8.1c.9-2.4,2.2-4.6,3.9-6.3s3.7-3.1,6-4.1c2.3-.9,4.8-1.4,7.5-1.4s5.9.5,8.3,1.5c2.4,1,4.4,2.4,6,4.2l7.9-7.9c-2.8-2.6-5.9-4.7-9.5-6.3-3.6-1.5-7.8-2.3-12.6-2.3s-8.4.8-12.1,2.4c-3.7,1.6-7,3.7-9.7,6.5-2.8,2.8-4.9,6-6.4,9.7-1.5,3.7-2.3,7.7-2.3,12s.8,8.3,2.3,12c1.5,3.7,3.7,7,6.5,9.8,2.8,2.8,6,5,9.8,6.5,3.7,1.6,7.8,2.4,12.2,2.4s8.9-.8,12.6-2.3c3.7-1.5,6.9-3.7,9.8-6.4l-7.9-7.9c-1.7,1.8-3.7,3.2-6.1,4.3Z"/>
        <path class="cls-1" d="M106.3,40.6c-3.3-1.9-7-2.8-11.2-2.8s-7.8.9-11.1,2.8c-3.3,1.9-5.9,4.4-7.8,7.6-1.9,3.2-2.9,6.8-2.9,10.8s1,7.7,2.9,10.9c1.9,3.2,4.5,5.8,7.8,7.7,3.3,1.9,7,2.8,11.1,2.8s7.9-.9,11.2-2.8c3.3-1.9,5.9-4.5,7.9-7.7,1.9-3.3,2.9-6.9,2.9-10.9s-1-7.6-2.9-10.8-4.6-5.7-7.9-7.6ZM104.3,64.8c-.9,1.6-2.1,2.9-3.7,3.9-1.6,1-3.4,1.4-5.5,1.4s-3.8-.5-5.4-1.4c-1.6-1-2.8-2.3-3.7-3.9-.9-1.6-1.3-3.5-1.3-5.7s.4-4,1.3-5.7c.9-1.6,2.1-2.9,3.7-3.8,1.6-.9,3.4-1.4,5.4-1.4s3.9.5,5.4,1.4c1.5.9,2.8,2.2,3.7,3.8.9,1.6,1.4,3.5,1.4,5.7s-.4,4-1.3,5.7Z"/>
        <path class="cls-1" d="M152.8,42.3c-1.1-1-2.3-1.9-3.6-2.6-2.4-1.2-5-1.8-7.9-1.8s-7.1.9-10.1,2.8-5.3,4.4-7.1,7.6c-1.7,3.2-2.6,6.8-2.6,10.9s.9,7.6,2.6,10.8c1.7,3.2,4.1,5.7,7.1,7.6,3,1.9,6.3,2.8,10.1,2.8s5.7-.6,8-1.8c1.4-.7,2.6-1.6,3.6-2.6v3.6h11.1V18.5h-11.2v23.8ZM152.2,64.9c-.9,1.6-2.1,2.9-3.7,3.9-1.6,1-3.4,1.4-5.4,1.4s-3.7-.5-5.3-1.4c-1.6-.9-2.8-2.2-3.7-3.9-.9-1.7-1.3-3.6-1.3-5.8s.4-4,1.3-5.7c.9-1.7,2.1-3,3.6-3.9,1.5-.9,3.4-1.4,5.4-1.4s3.8.5,5.4,1.4c1.5,1,2.8,2.3,3.6,3.9.9,1.6,1.3,3.5,1.3,5.7s-.4,4-1.3,5.7Z"/>
        <path class="cls-1" d="M202.7,40.5c-3-1.7-6.5-2.6-10.3-2.6s-7.7.9-11,2.8c-3.3,1.9-5.8,4.4-7.7,7.6-1.9,3.2-2.8,6.8-2.8,10.9s1,7.8,2.9,11c1.9,3.2,4.5,5.7,7.9,7.6,3.3,1.9,7.2,2.8,11.4,2.8s6.4-.6,9.2-1.8c2.8-1.2,5.3-3,7.3-5.3l-6.6-6.6c-1.2,1.5-2.7,2.5-4.4,3.2-1.7.7-3.6,1-5.7,1s-4.3-.5-6.1-1.4c-1.7-1-3.1-2.3-4-4.2-.4-.7-.6-1.5-.9-2.3h29.8c.2-1,.4-1.8.4-2.6,0-.8,0-1.5,0-2.2,0-3.9-.8-7.5-2.5-10.6-1.7-3.1-4.1-5.5-7.1-7.3ZM186.6,48.6c1.6-1,3.5-1.4,5.7-1.4s3.8.4,5.2,1.3c1.4.8,2.5,2.1,3.3,3.7.4.8.7,1.7.9,2.6h-19.7c.2-.7.4-1.4.8-2.1.9-1.8,2.1-3.1,3.8-4.1Z"/>
        <path class="cls-1" d="M252.5,39.6c-.6-1.1-1-2.4-1-4s.6-3,1.9-4.1c1.3-1.1,2.9-1.7,4.8-1.7s3.4.5,4.7,1.4c1.3.9,2.6,2.2,3.8,3.8l7.6-7.2c-1-1.5-2.2-2.8-3.7-4.1s-3.3-2.3-5.4-3.2c-2.1-.8-4.5-1.3-7.1-1.3s-6.5.7-9.1,2.2c-2.6,1.5-4.7,3.5-6.2,5.9-1.5,2.4-2.2,5.2-2.2,8.2s.5,4.9,1.5,7c.6,1.2,1.4,2.5,2.3,3.8-3.1,1.7-5.4,3.7-7.1,6.1-1.9,2.8-2.9,6.1-2.9,9.7s.8,6.6,2.5,9.4c1.7,2.8,4,4.9,7,6.5,3,1.6,6.5,2.4,10.6,2.4s5-.4,7.3-1.1c2.3-.7,4.3-1.6,6.1-2.8.9-.5,1.6-1.1,2.3-1.7l4.2,4.6h13.3l-32.4-36.2c-1.2-1.4-2.2-2.7-2.8-3.8ZM261.1,68.6c-1.7,1-3.7,1.5-6,1.5s-3.6-.4-5.1-1.1c-1.5-.7-2.6-1.7-3.4-2.9-.8-1.2-1.2-2.7-1.2-4.5s.5-4,1.5-5.4c.9-1.3,2-2.3,3.5-3.1l12.7,14c-.6.6-1.3,1.1-2.1,1.6Z"/>
        <path class="cls-1" d="M342.4,47.8c1.7-1,3-2.1,4.1-3.4,2.1-2.4,3.1-5.4,3.1-8.7s-.7-5.3-2.1-7.6c-1.4-2.3-3.4-4.2-6-5.7-2.6-1.4-5.9-2.2-9.8-2.2h-24.1v59.4h24.4c4.2,0,7.7-.8,10.7-2.3,3-1.5,5.2-3.6,6.8-6.2,1.6-2.6,2.4-5.4,2.4-8.6s-1.2-7.4-3.6-10.3c-1.5-1.8-3.5-3.3-5.9-4.5ZM330.3,29.6c2.3,0,4.2.6,5.6,1.8s2.2,3,2.2,5.4-.7,4.1-2.1,5.3c-1.4,1.2-3.3,1.8-5.7,1.8h-11.1v-14.3h11.2ZM338,67.6c-1.5,1.7-3.7,2.5-6.4,2.5h-12.6v-17.1h12.4c1.9,0,3.5.4,4.8,1.2s2.4,1.8,3,3.1c.7,1.3,1,2.7,1,4.3,0,2.3-.8,4.3-2.3,6Z"/>
        <path class="cls-1" d="M390,40.6c-3.3-1.9-7-2.8-11.2-2.8s-7.8.9-11.1,2.8c-3.3,1.9-5.9,4.4-7.8,7.6-1.9,3.2-2.9,6.8-2.9,10.8s1,7.7,2.9,10.9c1.9,3.2,4.5,5.8,7.8,7.7,3.3,1.9,7,2.8,11.1,2.8s7.9-.9,11.2-2.8c3.3-1.9,5.9-4.5,7.9-7.7,1.9-3.3,2.9-6.9,2.9-10.9s-1-7.6-2.9-10.8c-1.9-3.2-4.6-5.7-7.9-7.6ZM388.1,64.8c-.9,1.6-2.1,2.9-3.7,3.9-1.6,1-3.4,1.4-5.5,1.4s-3.8-.5-5.4-1.4c-1.6-1-2.8-2.3-3.7-3.9-.9-1.6-1.3-3.5-1.3-5.7s.4-4,1.3-5.7c.9-1.6,2.1-2.9,3.7-3.8s3.4-1.4,5.4-1.4,3.9.5,5.4,1.4c1.5.9,2.8,2.2,3.7,3.8.9,1.6,1.4,3.5,1.4,5.7s-.4,4-1.3,5.7Z"/>
        <path class="cls-1" d="M432.5,62.2c0,2.5-.6,4.5-1.9,5.9s-3.1,2.1-5.4,2.1-2.8-.3-4-.9c-1.1-.6-2-1.5-2.5-2.7-.6-1.2-.8-2.7-.8-4.3v-23.4h-11.1v23.6c0,3.5.8,6.7,2.4,9.4,1.6,2.7,3.8,4.8,6.6,6.3,2.8,1.5,6,2.2,9.5,2.2s6.7-.7,9.5-2.2c2.8-1.5,5-3.6,6.5-6.3,1.6-2.7,2.4-5.8,2.4-9.4v-23.6h-11.1v23.4Z"/>
        <path class="cls-1" d="M479.4,38.9c-1.5-.6-3.3-1-5.4-1-4.6,0-8.1,1.5-10.5,4.3,0,0,0,0,0,.1v-3.6h-11.1v40.8h11.1v-22.5c0-3.1.7-5.4,2.2-6.8,1.5-1.5,3.4-2.2,5.8-2.2s2.1.2,3,.5c.9.3,1.6.8,2.2,1.6l6.9-8c-1.3-1.5-2.7-2.5-4.3-3.2Z"/>
        <path class="cls-1" d="M519.5,40.7c-3-1.9-6.4-2.8-10.2-2.8s-5.5.6-7.9,1.8c-1.4.7-2.6,1.6-3.7,2.6v-23.8h-11.1v61.1h11v-3.7c1.1,1.1,2.3,2,3.7,2.7,2.4,1.2,5,1.8,7.9,1.8s7.1-.9,10.1-2.8c3-1.9,5.3-4.4,7.1-7.6,1.7-3.2,2.6-6.8,2.6-10.8s-.8-7.7-2.5-10.9c-1.7-3.2-4-5.7-7.1-7.6ZM516.3,64.9c-.9,1.6-2.1,2.9-3.6,3.9-1.5,1-3.3,1.4-5.3,1.4s-3.8-.5-5.4-1.4c-1.6-1-2.8-2.3-3.6-3.9-.8-1.6-1.3-3.5-1.3-5.7s.4-4.1,1.3-5.7c.8-1.6,2-2.9,3.6-3.9,1.5-1,3.3-1.4,5.4-1.4s3.8.5,5.4,1.4c1.5,1,2.8,2.3,3.6,3.9.9,1.7,1.3,3.5,1.3,5.6s-.4,4.1-1.3,5.7Z"/>
        <path class="cls-1" d="M566.5,40.6c-3.3-1.9-7-2.8-11.2-2.8s-7.8.9-11.1,2.8c-3.3,1.9-5.9,4.4-7.8,7.6-1.9,3.2-2.9,6.8-2.9,10.8s1,7.7,2.9,10.9c1.9,3.2,4.5,5.8,7.8,7.7,3.3,1.9,7,2.8,11.1,2.8s7.9-.9,11.2-2.8c3.3-1.9,5.9-4.5,7.9-7.7,1.9-3.3,2.9-6.9,2.9-10.9s-1-7.6-2.9-10.8c-1.9-3.2-4.6-5.7-7.9-7.6ZM564.6,64.8c-.9,1.6-2.1,2.9-3.7,3.9-1.6,1-3.4,1.4-5.5,1.4s-3.8-.5-5.4-1.4c-1.6-1-2.8-2.3-3.7-3.9-.9-1.6-1.3-3.5-1.3-5.7s.4-4,1.3-5.7c.9-1.6,2.1-2.9,3.7-3.8s3.4-1.4,5.4-1.4,3.9.5,5.4,1.4c1.5.9,2.8,2.2,3.7,3.8.9,1.6,1.4,3.5,1.4,5.7s-.4,4-1.3,5.7Z"/>
        <path class="cls-1" d="M620.8,46c-1.4-2.4-3.2-4.3-5.5-5.8-2.3-1.5-5-2.2-8.1-2.2s-5.9.7-8.3,2c-1.3.7-2.5,1.6-3.5,2.7v-3.9h-11.1v40.8h11.1v-23.4c0-1.6.4-3,1.1-4.3.7-1.3,1.7-2.2,2.9-2.9,1.2-.7,2.6-1,4.2-1,2.4,0,4.3.8,5.8,2.3,1.5,1.5,2.3,3.5,2.3,5.9v23.4h11.1v-25.9c0-2.7-.7-5.2-2-7.6Z"/>
      </g>
    </g>
  </g>
</svg>